<?xml version="1.0" encoding="utf-8"?>
<!-- Generator: Adobe Illustrator 25.3.1, SVG Export Plug-In . SVG Version: 6.00 Build 0)  -->
<svg version="1.1" id="Layer_1" xmlns="http://www.w3.org/2000/svg" xmlns:xlink="http://www.w3.org/1999/xlink" x="0px" y="0px"
	 viewBox="0 0 710.8 37.3" style="enable-background:new 0 0 710.8 37.3;" xml:space="preserve">
<style type="text/css">
	.st0{font-family:'Avenir-Book';}
	.st1{font-size:34.2858px;}
	.st2{fill:#6D6E71;}
	.st3{fill:url(#SVGID_1_);}
	.st4{fill:url(#SVGID_2_);}
	.st5{opacity:0.2;fill:#F1F2F2;}
	.st6{fill:url(#SVGID_3_);}
	.st7{opacity:0.67;fill:#FFFFFF;}
	.st8{fill:#FFFFFF;}
	.st9{opacity:0.49;fill:#FFFFFF;}
	.st10{opacity:0.48;fill:#FFFFFF;}
	.st11{opacity:0.79;fill:#FFFFFF;}
	.st12{opacity:0.62;}
	.st13{fill:url(#SVGID_4_);}
	.st14{fill:#414042;}
	.st15{font-size:30px;}
</style>
<g>
	<g>
		<g>
			
				<image style="overflow:visible;opacity:0.25;" width="201" height="289" xlink:href="36948CB564FABF3E.png"  transform="matrix(0.24 0 0 0.24 -9.72 -14.04)">
			</image>
			<g>
				<text transform="matrix(0.9668 0 0 1 3.8881 28.8415)" class="st0 st1">∫</text>
			</g>
		</g>
		<text transform="matrix(0.9668 0 0 1 3.6755 28.6524)" class="st2 st0 st1">∫</text>
	</g>
	<g>
		
			<radialGradient id="SVGID_1_" cx="58.2308" cy="32.5657" r="7.7394" fx="56.8107" fy="36.2704" gradientTransform="matrix(4.8187 -0.2525 3.370806e-02 0.6432 -239.2596 21.0117)" gradientUnits="userSpaceOnUse">
			<stop  offset="7.196508e-02" style="stop-color:#000000;stop-opacity:0.5"/>
			<stop  offset="0.189" style="stop-color:#424242;stop-opacity:0.3989"/>
			<stop  offset="0.3105" style="stop-color:#7F7F80;stop-opacity:0.2938"/>
			<stop  offset="0.4219" style="stop-color:#B0B0B1;stop-opacity:0.1975"/>
			<stop  offset="0.5192" style="stop-color:#D3D3D4;stop-opacity:0.1134"/>
			<stop  offset="0.5987" style="stop-color:#E8E8E9;stop-opacity:4.473999e-02"/>
			<stop  offset="0.6504" style="stop-color:#F0F0F1;stop-opacity:0"/>
			<stop  offset="0.9561" style="stop-color:#FFFFFF;stop-opacity:0"/>
		</radialGradient>
		<path class="st3" d="M77,26.3c0,1.4-17.7,3.6-31.9,4.3c-14.3,0.8-32.3,0.5-32.4-0.9c-0.1-1.4,16.7-3.9,31.9-4.7
			C59.9,24.1,76.9,24.9,77,26.3z"/>
		<g>
			<g>
				<g>
					
						<image style="overflow:visible;opacity:0.1;" width="222" height="218" xlink:href="36948CB564FABF42.png"  transform="matrix(0.24 0 0 0.24 9.24 -6.36)">
					</image>
					<g>
						<linearGradient id="SVGID_2_" gradientUnits="userSpaceOnUse" x1="25.5007" y1="12.5945" x2="43.9253" y2="25.4956">
							<stop  offset="0" style="stop-color:#005FAE"/>
							<stop  offset="0.171" style="stop-color:#006BB6"/>
							<stop  offset="0.5303" style="stop-color:#1C8DCD"/>
							<stop  offset="1" style="stop-color:#57CBF5"/>
						</linearGradient>
						<path class="st4" d="M46.5,17.8c0.1,0.7,0.3,1.7,0,2.9c-0.2,1.2-0.8,2-1.3,2.9c-0.3,0.5-1,1.6-2.1,2.6c-0.7,0.7-3,2.9-6.6,3.6
							c-0.5,0.1-6.4,1-10-3c-1.9-2.1-2.3-4.5-2.6-5.9c-0.2-1.3-0.6-3.8,0.5-6.5c1.8-4.3,6.2-5.8,7-6.1c0,0,3-0.9,6.3-0.2
							c1.3,0.3,2.4,0.8,2.5,0.8c0.5,0.2,1.2,0.5,1.8,1.1c0.5,0.4,1.1,0.9,2,2.3C45.3,14.4,46.2,15.8,46.5,17.8z"/>
					</g>
				</g>
			</g>
			<path class="st5" d="M44.2,23.8c0.8-0.3,0.8-0.3,0.9-0.1c0.1,0.1-0.3,0.5-1,1.4c-0.3,0.4-0.7,0.8-1.1,1.2
				c-0.2,0.2-0.7,0.7-1.3,1.2c-0.7,0.5-1.5,1.1-2.6,1.6c-0.8,0.4-1.7,0.7-2.7,0.9c-0.2,0-1.8,0.3-3.7,0.1c-1.1-0.1-2.3-0.4-3.5-1
				c-0.5-0.2-1-0.5-1.5-0.9c-0.4-0.3-0.9-0.7-1.3-1.1c-0.5-0.5-0.8-1-1.1-1.6c-0.2-0.4-0.4-0.8-0.6-1.2c-0.2-0.4-0.3-0.9-0.4-1.3
				c-0.1-0.4-0.2-0.8-0.3-1.1c0-0.2-0.1-0.5-0.1-0.7c-0.2-1-0.2-1.2-0.2-1.6c0-0.4,0-0.7,0.2-0.8c0.2-0.2,0.6,0.1,0.7,0.1
				c0.5,0.3,0.6,0.7,0.7,0.9c0.5,1.3,0.7,1.9,0.8,2.7c0.2,1.8,1.7,3.7,3.2,4.6c0,0,2.1,1.3,5.3,1c0.1,0,0.3,0,0.3,0
				c1.4-0.1,2.2-0.7,2.9-1c0.2-0.1,1.6-0.8,2.4-1.3C41.3,24.9,41.9,24.7,44.2,23.8z"/>
			
				<radialGradient id="SVGID_3_" cx="34.402" cy="18.2427" r="5.8535" fx="36.619" fy="20.0651" gradientTransform="matrix(1 0 0 0.8862 0 2.0761)" gradientUnits="userSpaceOnUse">
				<stop  offset="0" style="stop-color:#026CA3"/>
				<stop  offset="0.212" style="stop-color:#125F9E"/>
				<stop  offset="0.7447" style="stop-color:#263F91"/>
				<stop  offset="1" style="stop-color:#2B328D"/>
			</radialGradient>
			<path class="st6" d="M33.1,23.9c-1.8-0.2-4.3-1.5-4.7-4.1c-0.2-1.5,0.3-3,0.5-3.3c0.2-0.4,0.4-1,0.9-1.5c0.5-0.6,0.9-0.8,1.4-1.2
				c0.3-0.2,0.9-0.6,1.7-0.8c0.5-0.2,2.2-0.8,3.9-0.2c0.2,0.1,3,1,3.4,4c0.1,0.4,0.2,2-0.6,3.7c-1,1.9-2.6,2.7-3.2,3
				C34.9,24.1,33.6,24,33.1,23.9z"/>
			<path class="st7" d="M29.3,27.7c0.4,0.2,0.9,0.4,0.8,0.5c0,0.2-0.5,0.2-0.6,0.2c-1.1,0.1-2.5-1.4-3.2-2.2
				c-0.3-0.4-0.5-0.7-0.7-0.9c0,0-0.1-0.2-0.3-0.5c-0.1-0.2-0.2-0.4-0.2-0.5c0-0.1,0-0.3,0.1-0.4c0.1-0.1,0.3,0.1,0.4,0.2
				c0.2,0.1,0.3,0.3,0.3,0.3c0.5,0.8,1.3,2.1,2.1,2.7C28.3,27.3,28.7,27.6,29.3,27.7z"/>
			<path class="st8" d="M29.3,27.2"/>
			<path class="st9" d="M33.2,23.2c1-0.2,1.5-1.1,2.1-0.9c0,0,0.4,0.2,0.5,0.5c0,0.2,0,0.3,0,0.3c0,0.1-0.1,0.2-0.3,0.4
				c-0.3,0.2-0.7,0.2-1.3,0.3c-0.6,0-0.8,0-1.1,0c-1.2-0.1-2-0.6-2.2-0.7c-1.4-0.8-2-2.1-2.1-2.8c0-0.1-0.1-0.5,0.2-0.7
				c0.1-0.1,0.4-0.3,0.5-0.2c0.4,0.2-0.1,1.3,0.5,2.3c0.2,0.4,0.5,0.6,0.9,0.9C31.3,22.7,32.2,23.3,33.2,23.2z"/>
			<path class="st10" d="M38.8,14.4c0.1,0.1,0.4,0.6,0.2,0.9c-0.2,0.4-0.9,0.4-1.2,0.4c-0.9,0-1.1-0.4-2.1-0.7
				c-0.3-0.1-0.9-0.2-1.6-0.1c-1.3,0.1-1.7,0.8-2.3,0.5c-0.3-0.2-0.5-0.7-0.4-1c0.1-0.5,0.8-0.7,1.6-0.9c0.6-0.2,1.5-0.4,2.7-0.3
				C36.5,13.2,38.1,13.3,38.8,14.4z"/>
			<path class="st10" d="M39.9,15.8c0,0,0,0.2-0.1,0.2c-0.2,0.2-0.8,0.1-0.9-0.1c-0.1-0.2,0.2-0.6,0.5-0.6
				C39.6,15.4,39.8,15.6,39.9,15.8z"/>
			<path class="st11" d="M42.7,11.4c0.2,0.5,0.2,1.3-0.2,1.5c-0.4,0.2-1-0.2-1.9-0.8c-0.9-0.5-2.1-1.2-3.2-1.5
				c-1.9-0.5-4.5-0.2-5-0.6c-0.2-0.1-0.3-0.3-0.3-0.3c-0.1-0.1-0.2-0.4-0.1-0.7c0-0.1,0.1-0.2,0.3-0.4c0.7-0.5,2.1-0.4,2.2-0.4
				c1.4,0.1,2,0.1,2.6,0.2c2,0.4,3.3,1.1,3.6,1.2C41.6,10.1,42.4,10.6,42.7,11.4z"/>
			<path class="st11" d="M44.2,13.6c-0.1,0.4-0.7,0.6-1.1,0.4c-0.6-0.3-0.4-1.5-0.1-1.6C43.4,12.2,44.4,13.1,44.2,13.6z"/>
		</g>
	</g>
</g>
<g class="st12">
	
		<radialGradient id="SVGID_4_" cx="70.4301" cy="38.0615" r="7.7394" fx="69.01" fy="41.7662" gradientTransform="matrix(27.9202 0 0 0.6771 -1813.996 1.0718)" gradientUnits="userSpaceOnUse">
		<stop  offset="7.196508e-02" style="stop-color:#000000;stop-opacity:0.12"/>
		<stop  offset="0.189" style="stop-color:#424242;stop-opacity:9.573053e-02"/>
		<stop  offset="0.3105" style="stop-color:#7F7F80;stop-opacity:7.051824e-02"/>
		<stop  offset="0.4219" style="stop-color:#B0B0B1;stop-opacity:4.741077e-02"/>
		<stop  offset="0.5192" style="stop-color:#D3D3D4;stop-opacity:2.722403e-02"/>
		<stop  offset="0.5987" style="stop-color:#E8E8E9;stop-opacity:1.073760e-02"/>
		<stop  offset="0.6504" style="stop-color:#F0F0F1;stop-opacity:0"/>
		<stop  offset="0.9561" style="stop-color:#FFFFFF;stop-opacity:0"/>
	</radialGradient>
	<path class="st13" d="M352.4,27.8c-0.2,1.5-103.5,2.8-185.8,2.8c-83,0-186.5-1.3-186.8-2.8c-0.2-1.5,97.5-3.2,185.7-3.2
		C254.4,24.5,352.6,26.3,352.4,27.8z"/>
</g>
<text transform="matrix(0.9668 0 0 1 68.8298 27.5343)" class="st14 st0 st15">scdiffeq</text>
</svg>
