<?xml version="1.0" encoding="utf-8"?>
<!-- Generator: Adobe Illustrator 25.3.1, SVG Export Plug-In . SVG Version: 6.00 Build 0)  -->
<svg version="1.1" id="Layer_1" xmlns="http://www.w3.org/2000/svg" xmlns:xlink="http://www.w3.org/1999/xlink" x="0px" y="0px"
	 viewBox="0 0 710.8 59.3" style="enable-background:new 0 0 710.8 59.3;" xml:space="preserve">
<style type="text/css">
	.st0{font-family:'Avenir-Book';}
	.st1{font-size:51.4287px;}
	.st2{fill:#6D6E71;}
	.st3{fill:url(#SVGID_1_);}
	.st4{fill:url(#SVGID_2_);}
	.st5{opacity:0.2;fill:#F1F2F2;}
	.st6{fill:url(#SVGID_3_);}
	.st7{opacity:0.67;fill:#FFFFFF;}
	.st8{fill:#FFFFFF;}
	.st9{opacity:0.49;fill:#FFFFFF;}
	.st10{opacity:0.48;fill:#FFFFFF;}
	.st11{opacity:0.79;fill:#FFFFFF;}
	.st12{opacity:0.62;}
	.st13{fill:url(#SVGID_4_);}
	.st14{fill:#2E3192;}
	.st15{font-size:48px;}
	.st16{fill:#00AEEF;}
</style>
<g>
	<g>
		
			<image style="overflow:visible;opacity:0.25;" width="239" height="371" xlink:href="36948CB564FABF3A.png"  transform="matrix(0.24 0 0 0.24 -10.68 -16.1407)">
		</image>
		<g>
			<text transform="matrix(0.9668 0 0 1 3.0438 41.5704)" class="st0 st1">∫</text>
		</g>
	</g>
	<text transform="matrix(0.9668 0 0 1 2.7245 41.2862)" class="st2 st0 st1">∫</text>
</g>
<g>
	
		<radialGradient id="SVGID_1_" cx="62.0982" cy="43.286" r="11.6091" fx="59.9681" fy="48.843" gradientTransform="matrix(4.8187 -0.2525 3.370806e-02 0.6432 -239.8279 27.0272)" gradientUnits="userSpaceOnUse">
		<stop  offset="7.196508e-02" style="stop-color:#000000;stop-opacity:0.5"/>
		<stop  offset="0.189" style="stop-color:#424242;stop-opacity:0.3989"/>
		<stop  offset="0.3105" style="stop-color:#7F7F80;stop-opacity:0.2938"/>
		<stop  offset="0.4219" style="stop-color:#B0B0B1;stop-opacity:0.1975"/>
		<stop  offset="0.5192" style="stop-color:#D3D3D4;stop-opacity:0.1134"/>
		<stop  offset="0.5987" style="stop-color:#E8E8E9;stop-opacity:4.473999e-02"/>
		<stop  offset="0.6504" style="stop-color:#F0F0F1;stop-opacity:0"/>
		<stop  offset="0.9561" style="stop-color:#FFFFFF;stop-opacity:0"/>
	</radialGradient>
	<path class="st3" d="M112.7,37.8c0.1,2.2-26.6,5.4-47.9,6.5c-21.5,1.1-48.4,0.7-48.6-1.4c-0.2-2.1,25-5.9,47.8-7.1
		C87.1,34.5,112.6,35.7,112.7,37.8z"/>
	<g>
		<g>
			<g>
				
					<image style="overflow:visible;opacity:0.1;" width="270" height="264" xlink:href="36948CB564FABF46.png"  transform="matrix(0.24 0 0 0.24 18.2168 -4.0321)">
				</image>
				<g>
					<linearGradient id="SVGID_2_" gradientUnits="userSpaceOnUse" x1="35.463" y1="17.1996" x2="63.1" y2="36.5512">
						<stop  offset="0" style="stop-color:#005FAE"/>
						<stop  offset="0.171" style="stop-color:#006BB6"/>
						<stop  offset="0.5303" style="stop-color:#1C8DCD"/>
						<stop  offset="1" style="stop-color:#57CBF5"/>
					</linearGradient>
					<path class="st4" d="M67,25c0.2,1.1,0.4,2.6,0.1,4.4c-0.4,1.8-1.1,3-2,4.4c-0.5,0.8-1.6,2.4-3.2,4c-1,1-4.5,4.4-10,5.4
						c-0.7,0.1-9.5,1.5-15-4.4c-2.9-3.1-3.5-6.8-3.8-8.8c-0.3-1.9-1-5.6,0.8-9.7c2.7-6.5,9.3-8.7,10.5-9.1c0,0,4.5-1.4,9.4-0.3
						c1.9,0.4,3.6,1.2,3.7,1.3c0.7,0.3,1.7,0.8,2.8,1.6c0.8,0.6,1.6,1.4,2.9,3.4C65.1,19.9,66.5,22,67,25z"/>
				</g>
			</g>
		</g>
		<path class="st5" d="M63.6,34c1.2-0.4,1.2-0.4,1.4-0.2c0.1,0.2-0.5,0.8-1.5,2.2c-0.5,0.6-1,1.2-1.6,1.8c-0.4,0.4-1,1-2,1.7
			c-1,0.8-2.3,1.6-3.9,2.4c-1.2,0.5-2.6,1-4.1,1.3c-0.4,0.1-2.7,0.4-5.6,0.1c-1.7-0.2-3.5-0.6-5.3-1.5c-0.8-0.4-1.5-0.8-2.3-1.3
			c-0.7-0.5-1.3-1.1-1.9-1.7c-0.7-0.8-1.3-1.5-1.7-2.3c-0.4-0.6-0.7-1.2-0.9-1.9c-0.3-0.7-0.5-1.3-0.6-1.9c-0.2-0.6-0.3-1.2-0.4-1.7
			c-0.1-0.4-0.1-0.7-0.2-1c-0.3-1.5-0.3-1.8-0.3-2.4c0-0.6,0-1,0.3-1.2c0.4-0.2,0.9,0.1,1,0.2c0.7,0.4,0.9,1.1,1,1.3
			c0.7,1.9,1.1,2.9,1.2,4c0.4,2.7,2.5,5.5,4.8,7c0,0,3.2,2,7.9,1.5c0.2,0,0.4,0,0.4,0c2.2-0.2,3.3-1.1,4.3-1.5
			c0.3-0.2,2.3-1.2,3.6-2C59.2,35.7,60.1,35.3,63.6,34z"/>
		
			<radialGradient id="SVGID_3_" cx="48.815" cy="25.6719" r="8.7803" fx="52.1405" fy="28.4054" gradientTransform="matrix(1 0 0 0.8862 0 2.9215)" gradientUnits="userSpaceOnUse">
			<stop  offset="0" style="stop-color:#026CA3"/>
			<stop  offset="0.212" style="stop-color:#125F9E"/>
			<stop  offset="0.7447" style="stop-color:#263F91"/>
			<stop  offset="1" style="stop-color:#2B328D"/>
		</radialGradient>
		<path class="st6" d="M46.9,34.2c-2.8-0.4-6.4-2.3-7-6.2c-0.3-2.3,0.5-4.5,0.7-5c0.2-0.6,0.6-1.4,1.3-2.3c0.7-0.8,1.4-1.3,2.2-1.8
			c0.4-0.3,1.4-0.8,2.5-1.3c0.8-0.3,3.3-1.1,5.9-0.3c0.4,0.1,4.6,1.6,5.2,6c0.1,0.7,0.3,3-1,5.5c-1.5,2.9-4,4.1-4.7,4.5
			C49.6,34.5,47.7,34.3,46.9,34.2z"/>
		<path class="st7" d="M41.1,39.9c0.6,0.2,1.3,0.6,1.3,0.8c0,0.2-0.7,0.3-0.9,0.3c-1.7,0.2-3.8-2.1-4.8-3.3c-0.5-0.6-0.8-1.1-1-1.4
			c0,0-0.2-0.2-0.4-0.7c-0.2-0.4-0.3-0.5-0.3-0.8c0-0.1,0-0.4,0.1-0.5c0.2-0.1,0.4,0.1,0.6,0.2c0.3,0.2,0.4,0.4,0.4,0.4
			c0.8,1.2,1.9,3.1,3.1,4C39.6,39.3,40.2,39.7,41.1,39.9z"/>
		<path class="st8" d="M41.2,39.1"/>
		<path class="st9" d="M47.1,33c1.6-0.3,2.2-1.7,3.2-1.3c0.1,0,0.7,0.2,0.8,0.7c0.1,0.2,0,0.4-0.1,0.5c0,0.1-0.2,0.3-0.5,0.5
			c-0.5,0.3-1,0.4-1.9,0.4c-0.8,0-1.3,0-1.7,0c-1.8-0.2-3.1-1-3.3-1.1c-2.1-1.3-3-3.2-3.2-4.3c0-0.2-0.1-0.7,0.2-1.1
			c0.2-0.2,0.5-0.4,0.8-0.3c0.6,0.3-0.1,1.9,0.7,3.4c0.3,0.6,0.8,0.9,1.4,1.4C44.2,32.3,45.6,33.3,47.1,33z"/>
		<path class="st10" d="M55.4,19.9c0.1,0.2,0.5,0.9,0.3,1.4c-0.3,0.6-1.4,0.5-1.8,0.5c-1.3-0.1-1.6-0.6-3.2-1
			c-0.4-0.1-1.3-0.3-2.3-0.2c-1.9,0.2-2.6,1.2-3.4,0.8c-0.5-0.3-0.8-1-0.6-1.5c0.2-0.8,1.2-1.1,2.3-1.4c1-0.3,2.2-0.7,4.1-0.5
			C52,18.1,54.4,18.3,55.4,19.9z"/>
		<path class="st10" d="M57,22c0,0,0,0.2-0.1,0.4c-0.3,0.3-1.2,0.2-1.3-0.1c-0.1-0.3,0.3-0.9,0.8-0.9C56.7,21.4,57,21.7,57,22z"/>
		<path class="st11" d="M61.2,15.5c0.2,0.8,0.3,1.9-0.2,2.2c-0.5,0.3-1.5-0.3-2.8-1.1c-1.4-0.8-3.1-1.8-4.7-2.2
			c-2.8-0.7-6.8-0.2-7.5-0.9c-0.2-0.2-0.4-0.5-0.4-0.5c-0.1-0.2-0.3-0.6-0.2-1c0-0.1,0.1-0.4,0.5-0.6c1-0.7,3.2-0.7,3.3-0.7
			c2,0.1,3,0.1,3.9,0.3c3,0.5,4.9,1.6,5.3,1.9C59.6,13.5,60.8,14.2,61.2,15.5z"/>
		<path class="st11" d="M63.5,18.7c-0.2,0.5-1.1,0.9-1.7,0.6c-0.9-0.5-0.6-2.2-0.1-2.4C62.3,16.6,63.8,17.9,63.5,18.7z"/>
	</g>
</g>
<g class="st12">
	
		<radialGradient id="SVGID_4_" cx="71.2522" cy="53.1658" r="7.7394" fx="69.832" fy="56.8705" gradientTransform="matrix(33.6172 0 0 1.0073 -2186.8403 -10.0124)" gradientUnits="userSpaceOnUse">
		<stop  offset="7.196508e-02" style="stop-color:#000000;stop-opacity:0.12"/>
		<stop  offset="0.189" style="stop-color:#424242;stop-opacity:9.573053e-02"/>
		<stop  offset="0.3105" style="stop-color:#7F7F80;stop-opacity:7.051824e-02"/>
		<stop  offset="0.4219" style="stop-color:#B0B0B1;stop-opacity:4.741077e-02"/>
		<stop  offset="0.5192" style="stop-color:#D3D3D4;stop-opacity:2.722403e-02"/>
		<stop  offset="0.5987" style="stop-color:#E8E8E9;stop-opacity:1.073760e-02"/>
		<stop  offset="0.6504" style="stop-color:#F0F0F1;stop-opacity:0"/>
		<stop  offset="0.9561" style="stop-color:#FFFFFF;stop-opacity:0"/>
	</radialGradient>
	<path class="st13" d="M449.2,44.9c-0.3,2.3-124.6,4.1-223.8,4.1C125.5,49,0.8,47.2,0.6,44.9c-0.2-2.2,117.5-4.8,223.6-4.8
		C331.2,40.1,449.4,42.7,449.2,44.9z"/>
</g>
<text transform="matrix(0.9668 0 0 1 94.8421 41.748)"><tspan x="0" y="0" class="st14 st0 st15">sc</tspan><tspan x="43.6" y="0" class="st16 st0 st15">diffeq</tspan></text>
</svg>
