<?xml version="1.0" encoding="UTF-8"?><svg id="Layer_1" xmlns="http://www.w3.org/2000/svg" xmlns:xlink="http://www.w3.org/1999/xlink" viewBox="0 0 903 376.78"><defs><style>.cls-1{fill:url(#linear-gradient);}.cls-2{fill:#fff;}.cls-3{fill:#12e3ff;}.cls-4{fill:#06adef;}.cls-5,.cls-6,.cls-7{fill:#2e3292;}.cls-6{letter-spacing:-.02em;}.cls-8{fill:url(#linear-gradient-8);}.cls-9{fill:url(#linear-gradient-9);}.cls-10{fill:url(#linear-gradient-3);}.cls-11{fill:url(#linear-gradient-4);}.cls-12{fill:url(#linear-gradient-2);}.cls-13{fill:url(#linear-gradient-6);}.cls-14{fill:url(#linear-gradient-7);}.cls-15{fill:url(#linear-gradient-5);}.cls-16{font-family:Avenir-Light, Avenir;font-size:140px;}.cls-7{letter-spacing:0em;}.cls-17{fill:url(#linear-gradient-51);}.cls-18{fill:url(#linear-gradient-52);}.cls-19{fill:url(#linear-gradient-50);}.cls-20{fill:url(#linear-gradient-41);}.cls-21{fill:url(#linear-gradient-40);}.cls-22{fill:url(#linear-gradient-43);}.cls-23{fill:url(#linear-gradient-42);}.cls-24{fill:url(#linear-gradient-45);}.cls-25{fill:url(#linear-gradient-46);}.cls-26{fill:url(#linear-gradient-44);}.cls-27{fill:url(#linear-gradient-49);}.cls-28{fill:url(#linear-gradient-47);}.cls-29{fill:url(#linear-gradient-48);}.cls-30{fill:url(#linear-gradient-14);}.cls-31{fill:url(#linear-gradient-18);}.cls-32{fill:url(#linear-gradient-22);}.cls-33{fill:url(#linear-gradient-20);}.cls-34{fill:url(#linear-gradient-21);}.cls-35{fill:url(#linear-gradient-23);}.cls-36{fill:url(#linear-gradient-15);}.cls-37{fill:url(#linear-gradient-19);}.cls-38{fill:url(#linear-gradient-16);}.cls-39{fill:url(#linear-gradient-17);}.cls-40{fill:url(#linear-gradient-13);}.cls-41{fill:url(#linear-gradient-12);}.cls-42{fill:url(#linear-gradient-10);}.cls-43{fill:url(#linear-gradient-11);}.cls-44{fill:url(#linear-gradient-27);}.cls-45{fill:url(#linear-gradient-24);}.cls-46{fill:url(#linear-gradient-26);}.cls-47{fill:url(#linear-gradient-38);}.cls-48{fill:url(#linear-gradient-35);}.cls-49{fill:url(#linear-gradient-37);}.cls-50{fill:url(#linear-gradient-34);}.cls-51{fill:url(#linear-gradient-39);}.cls-52{fill:url(#linear-gradient-36);}.cls-53{fill:url(#linear-gradient-25);}.cls-54{fill:url(#linear-gradient-28);}.cls-55{fill:url(#linear-gradient-29);}.cls-56{fill:url(#linear-gradient-33);}.cls-57{fill:url(#linear-gradient-30);}.cls-58{fill:url(#linear-gradient-32);}.cls-59{fill:url(#linear-gradient-31);}</style><linearGradient id="linear-gradient" x1="425.32" y1="157.94" x2="832.08" y2="157.94" gradientTransform="matrix(1, 0, 0, 1, 0, 0)" gradientUnits="userSpaceOnUse"><stop offset="0" stop-color="#000673"/><stop offset=".51" stop-color="#04f"/><stop offset=".53" stop-color="#004cff"/><stop offset=".64" stop-color="#0079ff"/><stop offset=".74" stop-color="#009dff"/><stop offset=".84" stop-color="#00b7ff"/><stop offset=".93" stop-color="#00c6ff"/><stop offset="1" stop-color="#0cf"/></linearGradient><linearGradient id="linear-gradient-2" y1="127.25" x2="691.49" y2="127.25" xlink:href="#linear-gradient"/><linearGradient id="linear-gradient-3" y1="144.97" x2="621.06" y2="144.97" xlink:href="#linear-gradient"/><linearGradient id="linear-gradient-4" x1="3020.37" y1="-694.02" x2="3403.45" y2="-694.02" gradientTransform="translate(3828.77 -479.09) rotate(-180)" gradientUnits="userSpaceOnUse"><stop offset="0" stop-color="#0cf"/><stop offset=".07" stop-color="#00c6ff"/><stop offset=".16" stop-color="#00b7ff"/><stop offset=".26" stop-color="#009dff"/><stop offset=".36" stop-color="#0079ff"/><stop offset=".47" stop-color="#004cff"/><stop offset=".49" stop-color="#04f"/><stop offset="1" stop-color="#000673"/></linearGradient><linearGradient id="linear-gradient-5" x1="3041.71" y1="-725.01" y2="-725.01" xlink:href="#linear-gradient-4"/><linearGradient id="linear-gradient-6" y1="156.8" x2="558.88" y2="156.8" xlink:href="#linear-gradient"/><linearGradient id="linear-gradient-7" y1="164.69" x2="579.06" y2="164.69" xlink:href="#linear-gradient"/><linearGradient id="linear-gradient-8" y1="139.81" x2="814.51" y2="139.81" xlink:href="#linear-gradient"/><linearGradient id="linear-gradient-9" y1="139.4" x2="787.06" y2="139.4" xlink:href="#linear-gradient"/><linearGradient id="linear-gradient-10" y1="197.87" x2="708.99" y2="197.87" xlink:href="#linear-gradient"/><linearGradient id="linear-gradient-11" y1="157.3" x2="726.82" y2="157.3" xlink:href="#linear-gradient"/><linearGradient id="linear-gradient-12" y1="233.33" x2="792.71" y2="233.33" xlink:href="#linear-gradient"/><linearGradient id="linear-gradient-13" y1="229.66" x2="797.37" y2="229.66" xlink:href="#linear-gradient"/><linearGradient id="linear-gradient-14" y1="162.54" x2="544.46" y2="162.54" xlink:href="#linear-gradient"/><linearGradient id="linear-gradient-15" y1="161.39" x2="596.89" y2="161.39" xlink:href="#linear-gradient"/><linearGradient id="linear-gradient-16" y1="176.92" x2="585.37" y2="176.92" xlink:href="#linear-gradient"/><linearGradient id="linear-gradient-17" y1="215.9" x2="610.54" y2="215.9" xlink:href="#linear-gradient"/><linearGradient id="linear-gradient-18" y1="212.29" x2="645.14" y2="212.29" xlink:href="#linear-gradient"/><linearGradient id="linear-gradient-19" y1="202.16" x2="572.36" y2="202.16" xlink:href="#linear-gradient"/><linearGradient id="linear-gradient-20" x1="576.06" y1="222.56" x2="425.32" y2="222.56" gradientTransform="matrix(1, 0, 0, 1, 0, 0)" xlink:href="#linear-gradient-4"/><linearGradient id="linear-gradient-21" x1="608.75" y1="211.34" x2="425.32" y2="211.34" gradientTransform="matrix(1, 0, 0, 1, 0, 0)" xlink:href="#linear-gradient-4"/><linearGradient id="linear-gradient-22" x1="859.16" y1="133.74" x2="425.32" y2="133.74" gradientTransform="matrix(1, 0, 0, 1, 0, 0)" xlink:href="#linear-gradient-4"/><linearGradient id="linear-gradient-23" x1="839.46" y1="145.16" x2="425.32" y2="145.16" gradientTransform="matrix(1, 0, 0, 1, 0, 0)" xlink:href="#linear-gradient-4"/><linearGradient id="linear-gradient-24" x1="819.18" y1="172.01" x2="425.32" y2="172.01" gradientTransform="matrix(1, 0, 0, 1, 0, 0)" xlink:href="#linear-gradient-4"/><linearGradient id="linear-gradient-25" x1="886.25" y1="148.42" x2="425.32" y2="148.42" gradientTransform="matrix(1, 0, 0, 1, 0, 0)" xlink:href="#linear-gradient-4"/><linearGradient id="linear-gradient-26" x1="814.3" y1="222.14" x2="425.53" y2="222.14" gradientTransform="matrix(1, 0, 0, 1, 0, 0)" gradientUnits="userSpaceOnUse"><stop offset="0" stop-color="#0cf"/><stop offset=".1" stop-color="#00c6ff"/><stop offset=".21" stop-color="#00b7ff"/><stop offset=".35" stop-color="#009dff"/><stop offset=".49" stop-color="#0079ff"/><stop offset=".63" stop-color="#004cff"/><stop offset=".66" stop-color="#04f"/><stop offset="1" stop-color="#000673"/></linearGradient><linearGradient id="linear-gradient-27" x1="771.25" y1="145.15" x2="425.32" y2="145.15" gradientTransform="matrix(1, 0, 0, 1, 0, 0)" xlink:href="#linear-gradient-4"/><linearGradient id="linear-gradient-28" y1="239.82" x2="855.95" y2="239.82" xlink:href="#linear-gradient"/><linearGradient id="linear-gradient-29" y1="279.83" x2="814.51" y2="279.83" xlink:href="#linear-gradient"/><linearGradient id="linear-gradient-30" y1="226.46" x2="625.34" y2="226.46" xlink:href="#linear-gradient"/><linearGradient id="linear-gradient-31" y1="213.98" x2="554.89" y2="213.98" xlink:href="#linear-gradient"/><linearGradient id="linear-gradient-32" y1="193.75" x2="839.46" y2="193.75" xlink:href="#linear-gradient"/><linearGradient id="linear-gradient-33" y1="128.36" x2="645.16" y2="128.36" xlink:href="#linear-gradient"/><linearGradient id="linear-gradient-34" y1="206.3" x2="771.25" y2="206.3" xlink:href="#linear-gradient"/><linearGradient id="linear-gradient-35" y1="196.64" x2="792.71" y2="196.64" xlink:href="#linear-gradient"/><linearGradient id="linear-gradient-36" y1="127.87" x2="797.37" y2="127.87" xlink:href="#linear-gradient"/><linearGradient id="linear-gradient-37" y1="206.26" x2="619.74" y2="206.26" xlink:href="#linear-gradient"/><linearGradient id="linear-gradient-38" x1="425.53" y1="227.87" x2="523.44" y2="227.87" gradientTransform="matrix(1, 0, 0, 1, 0, 0)" gradientUnits="userSpaceOnUse"><stop offset="0" stop-color="#000673"/><stop offset=".34" stop-color="#04f"/><stop offset=".37" stop-color="#004cff"/><stop offset=".51" stop-color="#0079ff"/><stop offset=".65" stop-color="#009dff"/><stop offset=".79" stop-color="#00b7ff"/><stop offset=".9" stop-color="#00c6ff"/><stop offset="1" stop-color="#0cf"/></linearGradient><linearGradient id="linear-gradient-39" y1="237.65" x2="819.18" y2="237.65" xlink:href="#linear-gradient"/><linearGradient id="linear-gradient-40" y1="154.4" x2="778.09" y2="154.4" xlink:href="#linear-gradient"/><linearGradient id="linear-gradient-41" x1="424.82" y1="157.95" x2="832.64" y2="157.95" xlink:href="#linear-gradient"/><linearGradient id="linear-gradient-42" x1="424.82" y1="215.92" x2="611.1" y2="215.92" xlink:href="#linear-gradient"/><linearGradient id="linear-gradient-43" x1="424.82" y1="212.31" x2="645.7" y2="212.31" xlink:href="#linear-gradient"/><linearGradient id="linear-gradient-44" x1="424.82" y1="202.17" x2="572.91" y2="202.17" xlink:href="#linear-gradient"/><linearGradient id="linear-gradient-45" x1="609.31" y1="211.36" x2="424.82" y2="211.36" gradientTransform="matrix(1, 0, 0, 1, 0, 0)" xlink:href="#linear-gradient-4"/><linearGradient id="linear-gradient-46" x1="819.74" y1="172.03" x2="424.82" y2="172.03" gradientTransform="matrix(1, 0, 0, 1, 0, 0)" xlink:href="#linear-gradient-4"/><linearGradient id="linear-gradient-47" x1="424.82" y1="279.85" x2="815.07" y2="279.85" xlink:href="#linear-gradient"/><linearGradient id="linear-gradient-48" x1="424.82" y1="193.77" x2="840.01" y2="193.77" xlink:href="#linear-gradient"/><linearGradient id="linear-gradient-49" x1="424.82" y1="139.81" x2="815.03" y2="139.81" xlink:href="#linear-gradient"/><linearGradient id="linear-gradient-50" x1="839.97" y1="145.16" x2="424.82" y2="145.16" gradientTransform="matrix(1, 0, 0, 1, 0, 0)" xlink:href="#linear-gradient-4"/><linearGradient id="linear-gradient-51" x1="886.75" y1="148.42" x2="424.82" y2="148.42" gradientTransform="matrix(1, 0, 0, 1, 0, 0)" xlink:href="#linear-gradient-4"/><linearGradient id="linear-gradient-52" x1="424.82" y1="191.03" x2="525.17" y2="191.03" gradientTransform="matrix(1, 0, 0, 1, 0, 0)" gradientUnits="userSpaceOnUse"><stop offset="0" stop-color="#fff"/><stop offset=".32" stop-color="#fff" stop-opacity=".99"/><stop offset=".46" stop-color="#fff" stop-opacity=".96"/><stop offset=".56" stop-color="#fff" stop-opacity=".91"/><stop offset=".64" stop-color="#fff" stop-opacity=".84"/><stop offset=".72" stop-color="#fff" stop-opacity=".75"/><stop offset=".78" stop-color="#fff" stop-opacity=".64"/><stop offset=".84" stop-color="#fff" stop-opacity=".51"/><stop offset=".9" stop-color="#fff" stop-opacity=".35"/><stop offset=".95" stop-color="#fff" stop-opacity=".18"/><stop offset="1" stop-color="#fff" stop-opacity="0"/></linearGradient></defs><rect class="cls-2" x="0" y="2.53" width="903" height="377"/><g><g><g><g><path class="cls-1" d="M831.58,228.1c-95.12,0-117.63-56.14-134.07-97.12-9.45-23.57-16.92-42.19-35.04-42.19-19.46,0-29.7,21.91-39.6,43.1-9.59,20.53-19.51,41.76-37.9,41.76-7.11,0-15.41-2.52-25.93-5.7-20.26-6.14-48.01-14.55-93.48-14.55h-39.74c-.28,0-.5-.22-.5-.5s.22-.5,.5-.5h39.74c45.62,0,73.45,8.43,93.77,14.59,10.44,3.16,18.68,5.66,25.64,5.66,17.75,0,27.1-20,36.99-41.18,10.03-21.47,20.41-43.68,40.51-43.68,18.79,0,26.37,18.9,35.97,42.82,16.33,40.72,38.7,96.5,133.14,96.5,.28,0,.5,.22,.5,.5s-.22,.5-.5,.5Z"/><path class="cls-12" d="M584.97,170.18c-7.11,0-15.41-2.52-25.93-5.7-20.26-6.14-48.01-14.55-93.48-14.55h-39.74c-.28,0-.5-.22-.5-.5s.22-.5,.5-.5h39.74c45.62,0,73.45,8.43,93.77,14.59,10.44,3.16,18.68,5.66,25.64,5.66,17.75,0,27.1-20,36.99-41.18,10.03-21.47,20.41-43.68,40.51-43.68,11.94,0,21.41,7.54,28.97,23.05,.12,.25,.02,.55-.23,.67-.24,.12-.55,.02-.67-.23-7.37-15.13-16.55-22.49-28.07-22.49-19.46,0-29.7,21.91-39.6,43.1-9.59,20.53-19.51,41.76-37.9,41.76Z"/><path class="cls-10" d="M584.97,164.56c-7.11,0-15.41-2.52-25.93-5.7-20.26-6.14-48.01-14.55-93.48-14.55h-39.74c-.28,0-.5-.22-.5-.5s.22-.5,.5-.5h39.74c45.62,0,73.45,8.43,93.77,14.59,10.44,3.16,18.68,5.66,25.64,5.66,15.2,0,23.83-16.41,32.97-33.79,.72-1.37,1.45-2.75,2.18-4.13,.13-.24,.43-.34,.68-.21,.24,.13,.34,.43,.21,.68-.73,1.38-1.46,2.75-2.18,4.12-9.28,17.65-18.05,34.32-33.85,34.32Z"/><path class="cls-11" d="M465.56,237.98h-39.74c-.28,0-.5-.22-.5-.5s.22-.5,.5-.5h39.74c50.96,0,80.79-17.8,102.57-30.8,13.37-7.98,23.94-14.29,35-14.29,12.37,0,21.16,4.72,31.35,10.18,13.69,7.33,30.72,16.46,63.18,16.46,17.83,0,34.19-4.44,51.5-9.14,18.24-4.95,37.1-10.07,58.74-10.07,.28,0,.5,.22,.5,.5s-.22,.5-.5,.5c-21.51,0-40.3,5.1-58.48,10.04-17.38,4.72-33.8,9.18-51.77,9.18-32.72,0-49.87-9.2-63.65-16.58-10.07-5.4-18.76-10.06-30.88-10.06-10.79,0-21.25,6.24-34.49,14.15-21.88,13.06-51.84,30.94-103.08,30.94Z"/><path class="cls-15" d="M690.99,287.42c-20.11,0-31.02-20.55-41.57-40.43-10.85-20.44-22.07-41.57-43.26-41.57-10.84,0-21.73,4.15-35.53,9.4-22.74,8.66-53.88,20.52-105.07,20.52h-39.74c-.28,0-.5-.22-.5-.5s.22-.5,.5-.5h39.74c51.01,0,82.05-11.82,104.72-20.45,13.89-5.29,24.86-9.47,35.88-9.47,21.8,0,33.16,21.4,44.14,42.1,10.89,20.52,21.18,39.9,40.69,39.9,8.99,0,15.53-5.18,23.8-11.73,13.3-10.53,31.51-24.96,71.78-24.96,.28,0,.5,.22,.5,.5s-.22,.5-.5,.5c-39.92,0-57.98,14.3-71.16,24.74-8.42,6.67-15.08,11.95-24.42,11.95Z"/><path class="cls-13" d="M558.38,164.7c-.06,0-.12,0-.17-.03-26.51-9.79-57.68-14.75-92.65-14.75h-39.74c-.28,0-.5-.22-.5-.5s.22-.5,.5-.5h39.74c35.08,0,66.37,4.98,92.99,14.81,.26,.1,.39,.38,.3,.64-.07,.2-.27,.33-.47,.33Z"/><path class="cls-14" d="M578.56,175.39c-7.24,0-15.26-2.61-25.41-5.91-18.82-6.12-44.59-14.5-87.6-14.5h-39.74c-.28,0-.5-.22-.5-.5s.22-.5,.5-.5h39.74c43.16,0,69.02,8.41,87.91,14.55,10.07,3.27,18.02,5.86,25.1,5.86,.28,0,.5,.22,.5,.5s-.22,.5-.5,.5Z"/><path class="cls-8" d="M645.2,258.4c-34.89,0-67.07-19.65-98.19-38.66-28.32-17.3-55.07-33.64-81.46-33.64h-39.74c-.28,0-.5-.22-.5-.5s.22-.5,.5-.5h39.74c26.67,0,53.54,16.41,81.98,33.79,31,18.93,63.05,38.51,97.67,38.51s42.43-42.17,52.74-91c6.87-32.58,14.67-69.5,31.22-97.46,19.01-32.11,46.77-47.72,84.85-47.72,.28,0,.5,.22,.5,.5s-.22,.5-.5,.5c-37.7,0-65.17,15.45-83.99,47.23-16.47,27.82-24.25,64.66-31.11,97.16-10.39,49.25-19.37,91.79-53.72,91.79Z"/><path class="cls-9" d="M645.2,261.89c-34.89,0-67.07-19.65-98.19-38.66-28.32-17.3-55.07-33.64-81.46-33.64h-39.74c-.28,0-.5-.22-.5-.5s.22-.5,.5-.5h39.74c26.67,0,53.54,16.41,81.98,33.79,31,18.93,63.05,38.51,97.67,38.51s42.43-44.16,52.74-95.29c12.53-62.17,26.73-132.63,88.5-148.68,.27-.07,.54,.09,.61,.36,.07,.27-.09,.54-.36,.61-61.16,15.89-75.29,86.03-87.77,147.91-10.39,51.56-19.37,96.09-53.72,96.09Z"/><path class="cls-42" d="M645.2,262.89c-34.89,0-67.07-19.65-98.19-38.66-28.32-17.3-55.07-33.64-81.46-33.64h-39.74c-.28,0-.5-.22-.5-.5s.22-.5,.5-.5h39.74c26.67,0,53.54,16.41,81.98,33.79,31,18.93,63.05,38.51,97.67,38.51s45.23-47.4,56.99-102.29c1.85-8.63,3.76-17.56,5.8-26.37,.06-.27,.33-.44,.6-.37,.27,.06,.44,.33,.37,.6-2.04,8.81-3.95,17.73-5.8,26.36-5.82,27.14-11.31,52.77-19.82,71.73-9.6,21.39-21.72,31.35-38.15,31.35Z"/><path class="cls-43" d="M645.2,253.52c-34.89,0-67.07-19.65-98.19-38.66-28.32-17.3-55.07-33.64-81.46-33.64h-39.74c-.28,0-.5-.22-.5-.5s.22-.5,.5-.5h39.74c26.67,0,53.54,16.41,81.98,33.79,31,18.93,63.05,38.51,97.67,38.51s42.43-44.16,52.74-95.29c6.38-31.67,13.62-67.56,27.93-95.87,.12-.25,.43-.35,.67-.22s.34,.43,.22,.67c-14.25,28.2-21.47,64.02-27.84,95.62-10.39,51.56-19.37,96.09-53.72,96.09Z"/><path class="cls-41" d="M792.21,333.82c-35.21,0-64.53-13.44-89.63-41.1-21.84-24.06-37.56-55.65-51.43-83.51-20.13-40.44-37.51-75.37-66.41-75.37-35.51,0-49.33,25.36-62.68,49.88-13.09,24.03-25.45,46.73-56.5,46.73h-39.74c-.28,0-.5-.22-.5-.5s.22-.5,.5-.5h39.74c30.46,0,42.68-22.44,55.63-46.2,13.5-24.78,27.45-50.4,63.56-50.4,29.52,0,47.03,35.18,67.3,75.92,13.84,27.81,29.53,59.33,51.28,83.29,24.9,27.43,53.98,40.77,88.89,40.77,.28,0,.5,.22,.5,.5s-.22,.5-.5,.5Z"/><path class="cls-40" d="M796.87,322.06c-35.2,0-64.83-12.35-90.57-37.77-22.4-22.11-38.86-51.15-53.38-76.77-21.07-37.17-39.27-69.27-68.18-69.27-35.53,0-49.34,22.93-62.69,45.11-13.09,21.74-25.45,42.27-56.49,42.27h-39.74c-.28,0-.5-.22-.5-.5s.22-.5,.5-.5h39.74c30.47,0,42.7-20.3,55.64-41.78,13.5-22.41,27.46-45.59,63.55-45.59,29.5,0,47.83,32.34,69.05,69.78,14.49,25.56,30.91,54.53,53.21,76.55,25.54,25.22,54.94,37.48,89.87,37.48,.28,0,.5,.22,.5,.5s-.22,.5-.5,.5Z"/><path class="cls-30" d="M543.96,168.77c-.06,0-.13-.01-.19-.04-12.8-5.21-36.76-11.43-78.22-11.43h-39.74c-.28,0-.5-.22-.5-.5s.22-.5,.5-.5h39.74c22.97,0,55.26,2,78.59,11.5,.26,.1,.38,.4,.27,.65-.08,.19-.27,.31-.46,.31Z"/><path class="cls-36" d="M583.77,172.26c-6.85,0-14.52-2.42-24.16-5.47-5.4-1.71-11.51-3.64-18.45-5.45-25.29-6.61-50.02-9.82-75.59-9.82h-39.74c-.28,0-.5-.22-.5-.5s.22-.5,.5-.5h39.74c25.66,0,50.47,3.22,75.84,9.86,6.97,1.82,13.1,3.76,18.5,5.47,15.78,4.98,26.2,8.28,36.22,1.84,.23-.15,.54-.08,.69,.15,.15,.23,.08,.54-.15,.69-4.16,2.67-8.34,3.74-12.89,3.74Z"/><path class="cls-38" d="M465.56,223.18h-39.74c-.28,0-.5-.22-.5-.5s.22-.5,.5-.5h39.74c31.11,0,43.19-21.33,55.98-43.91,13.25-23.4,26.96-47.6,63.33-47.6,.28,0,.5,.22,.5,.5s-.22,.5-.5,.5c-35.79,0-49.35,23.94-62.46,47.09-12.94,22.84-25.16,44.42-56.85,44.42Z"/><path class="cls-39" d="M610.04,249.59s-.1,0-.15-.02c-21.79-6.66-42.55-19.73-62.62-32.37-27.75-17.47-53.95-33.98-81.71-33.98h-39.74c-.28,0-.5-.22-.5-.5s.22-.5,.5-.5h39.74c28.05,0,54.37,16.58,82.24,34.13,20.02,12.61,40.72,25.64,62.38,32.26,.26,.08,.41,.36,.33,.62-.07,.21-.26,.35-.48,.35Z"/><path class="cls-31" d="M644.64,248.17c-31.8,0-62.38-18.34-91.95-36.08-29.72-17.83-57.8-34.67-87.13-34.67h-39.74c-.28,0-.5-.22-.5-.5s.22-.5,.5-.5h39.74c29.61,0,59.11,17.7,87.65,34.81,29.46,17.67,59.92,35.94,91.44,35.94,.28,0,.5,.22,.5,.5s-.22,.5-.5,.5Z"/><path class="cls-37" d="M571.86,225.81c-.08,0-.15-.02-.23-.05-14.04-7.19-25.86-14.25-36.29-20.48-25.05-14.96-43.14-25.77-69.78-25.77h-39.74c-.28,0-.5-.22-.5-.5s.22-.5,.5-.5h39.74c26.92,0,45.11,10.87,70.3,25.91,10.41,6.22,22.22,13.27,36.23,20.45,.25,.13,.34,.43,.22,.67-.09,.17-.26,.27-.45,.27Z"/><path class="cls-33" d="M465.56,240.43h-39.74c-.28,0-.5-.22-.5-.5s.22-.5,.5-.5h39.74c51.27,0,77.3-15.43,107.44-33.3l2.31-1.37c.24-.14,.54-.06,.68,.18,.14,.24,.06,.54-.18,.69l-2.31,1.37c-30.27,17.94-56.41,33.44-107.95,33.44Z"/><path class="cls-34" d="M465.56,233.33h-39.74c-.28,0-.5-.22-.5-.5s.22-.5,.5-.5h39.74c14.09,0,49.66-1.33,75.44-13.67,8.25-3.95,15.53-8.65,22.56-13.2,15.02-9.7,28-18.08,44.77-15.69,.27,.04,.46,.29,.42,.57-.04,.27-.29,.46-.57,.42-16.41-2.35-29.24,5.94-44.09,15.54-7.06,4.56-14.36,9.28-22.67,13.26-25.96,12.43-61.7,13.77-75.87,13.77Z"/><path class="cls-32" d="M676.88,208.48c-46.44,0-71.1-11.23-97.21-23.11-27.76-12.64-56.47-25.71-114.12-25.71h-39.74c-.28,0-.5-.22-.5-.5s.22-.5,.5-.5h39.74c57.86,0,86.67,13.12,114.53,25.8,26.01,11.84,50.57,23.02,96.8,23.02,48.53,0,71.4-38.46,93.51-75.64,21.29-35.81,43.31-72.84,88.26-72.84,.28,0,.5,.22,.5,.5s-.22,.5-.5,.5c-44.38,0-65.28,35.14-87.4,72.35-22.26,37.43-45.27,76.13-94.37,76.13Z"/><path class="cls-35" d="M587.02,183.22c-8.43,0-16.39-2.57-26.46-5.83-18.75-6.06-44.44-14.36-95-14.36h-39.74c-.28,0-.5-.22-.5-.5s.22-.5,.5-.5h39.74c50.71,0,76.49,8.33,95.3,14.41,9.99,3.23,17.88,5.78,26.15,5.78,22.87,0,28.1-19.08,33.16-37.53,5.07-18.48,10.31-37.6,33.14-37.6,17.48,0,31.7,6.11,49.7,13.85,28.98,12.46,65.05,27.97,135.94,27.97,.28,0,.5,.22,.5,.5s-.22,.5-.5,.5c-71.09,0-107.27-15.55-136.33-28.05-17.9-7.69-32.03-13.77-49.31-13.77-22.06,0-26.97,17.91-32.17,36.86-5.16,18.81-10.49,38.26-34.13,38.26Z"/><path class="cls-45" d="M634.72,229.33c-15.38,0-27.48-9.19-40.29-18.93-12.97-9.85-26.38-20.04-43.62-20.04s-26.72,8.31-36.84,17.12c-11.65,10.14-23.69,20.62-48.42,20.62h-39.74c-.28,0-.5-.22-.5-.5s.22-.5,.5-.5h39.74c24.35,0,36.25-10.36,47.76-20.37,10.26-8.93,19.94-17.36,37.49-17.36s31.13,10.29,44.23,20.25c12.67,9.63,24.64,18.72,39.68,18.72,23.16,0,37.16-18.72,53.38-40.39,24.42-32.63,54.82-73.25,130.58-73.25,.28,0,.5,.22,.5,.5s-.22,.5-.5,.5c-75.26,0-105.49,40.39-129.78,72.85-16.38,21.89-30.53,40.79-54.19,40.79Z"/><path class="cls-53" d="M885.75,187.08c-135.18,0-179.68-37.96-206.27-60.64-10.5-8.96-18.09-15.43-27.24-15.68-16.45-.48-23.38,16.4-30.73,34.24-6.66,16.18-13.55,32.91-28.27,35.53-14.3,2.54-28.78-.85-47.11-5.14-20.32-4.76-45.61-10.69-80.58-10.69h-39.74c-.28,0-.5-.22-.5-.5s.22-.5,.5-.5h39.74c35.08,0,60.43,5.94,80.81,10.71,18.22,4.27,32.61,7.64,46.71,5.13,14.18-2.52,20.96-18.99,27.52-34.92,7.15-17.37,14.54-35.33,31.68-34.86,9.5,.26,17.2,6.83,27.86,15.92,26.49,22.59,70.81,60.4,205.62,60.4,.28,0,.5,.22,.5,.5s-.22,.5-.5,.5Z"/><path class="cls-46" d="M814.01,276.3c-79.95,0-94.42-26.61-107.17-50.09-10.19-18.75-18.99-34.95-58.27-34.95-14.82,0-28.52,3.41-41.78,6.7-19.33,4.81-37.59,9.35-54.94,1.44-7.41-3.38-14.34-6.92-21.04-10.33-21.55-11-40.17-20.51-65.25-20.51h-39.74c-.16,0-.29-.13-.29-.29s.13-.29,.29-.29h39.74c25.22,0,43.9,9.53,65.52,20.57,6.69,3.42,13.62,6.95,21.01,10.32,17.17,7.83,35.33,3.31,54.56-1.47,13.29-3.3,27.03-6.72,41.92-6.72,39.62,0,48.5,16.34,58.78,35.25,12.68,23.34,27.06,49.79,106.67,49.79,.16,0,.29,.13,.29,.29s-.13,.29-.29,.29Z"/><path class="cls-44" d="M642.12,219.16c-29.62,0-63.25-13.13-95.77-25.82-29.84-11.65-58.03-22.65-80.79-22.65h-39.74c-.28,0-.5-.22-.5-.5s.22-.5,.5-.5h39.74c22.95,0,51.22,11.04,81.15,22.72,32.44,12.66,65.98,25.75,95.41,25.75s52.09-41.25,73.4-81.15c18.1-33.89,35.2-65.89,55.23-65.89,.28,0,.5,.22,.5,.5s-.22,.5-.5,.5c-19.43,0-36.39,31.75-54.35,65.36-21.45,40.15-43.64,81.67-74.28,81.67Z"/><path class="cls-54" d="M855.45,311.86c-120.91,0-138.28-50.83-152.23-91.68-9.43-27.59-17.57-51.42-56.04-51.42-14.88,0-33.74,8.84-53.7,18.19-22.59,10.58-45.94,21.53-66.86,21.53-7.37,0-16.14-3.1-25.43-6.39-10.94-3.87-23.35-8.25-35.62-8.25h-39.74c-.28,0-.5-.22-.5-.5s.22-.5,.5-.5h39.74c12.45,0,24.94,4.42,35.96,8.31,9.21,3.25,17.9,6.33,25.1,6.33,20.69,0,43.95-10.9,66.43-21.43,20.07-9.4,39.02-18.28,54.13-18.28,39.19,0,47.44,24.14,56.99,52.09,13.85,40.54,31.09,91,151.29,91,.28,0,.5,.22,.5,.5s-.22,.5-.5,.5Z"/><path class="cls-55" d="M814.01,364.14c-79.41,0-107.38-45.22-129.85-81.55-14.57-23.56-26.08-42.17-47.43-42.17-33.07,0-53.35-15.06-69.64-27.16-12.1-8.98-22.55-16.74-35.16-16.74-16.31,0-25.24,6.2-33.88,12.2-8.43,5.85-17.14,11.9-32.49,11.9h-39.74c-.28,0-.5-.22-.5-.5s.22-.5,.5-.5h39.74c15.04,0,23.24-5.69,31.92-11.72,8.77-6.09,17.83-12.38,34.46-12.38,12.94,0,23.51,7.85,35.75,16.94,17.02,12.64,36.31,26.96,69.05,26.96,21.91,0,34.13,19.76,48.28,42.64,22.34,36.12,50.15,81.07,129,81.07,.28,0,.5,.22,.5,.5s-.22,.5-.5,.5Z"/><path class="cls-57" d="M624.84,262.41s-.06,0-.1,0c-28.98-5.74-54.76-21.94-79.7-37.61-27.25-17.12-52.98-33.29-79.48-33.29h-39.74c-.28,0-.5-.22-.5-.5s.22-.5,.5-.5h39.74c26.79,0,52.64,16.24,80.02,33.44,24.86,15.62,50.57,31.77,79.36,37.47,.27,.05,.45,.32,.39,.59-.05,.24-.26,.4-.49,.4Z"/><path class="cls-59" d="M554.39,232.44c-.09,0-.18-.02-.26-.07-31.85-19.61-60.5-35.84-88.57-35.84h-39.74c-.28,0-.5-.22-.5-.5s.22-.5,.5-.5h39.74c28.33,0,57.11,16.3,89.1,35.99,.23,.14,.31,.45,.16,.69-.09,.15-.26,.24-.43,.24Z"/><path class="cls-58" d="M838.96,242.35c-82.18,0-120.12-39.86-147.83-68.96-14.48-15.21-25.92-27.23-38.87-27.23-8.08,0-15.36,6.9-23.79,14.9-12.23,11.6-27.44,26.03-52.13,26.03-14.81,0-32.48-4.7-51.18-9.68-20.1-5.35-40.89-10.89-59.6-10.89h-39.74c-.28,0-.5-.22-.5-.5s.22-.5,.5-.5h39.74c18.84,0,39.69,5.55,59.85,10.92,18.64,4.96,36.24,9.65,50.92,9.65,24.29,0,39.35-14.28,51.45-25.75,8.58-8.14,16-15.17,24.48-15.17,13.38,0,24.95,12.15,39.59,27.54,27.58,28.97,65.36,68.65,147.11,68.65,.28,0,.5,.22,.5,.5s-.22,.5-.5,.5Z"/><path class="cls-56" d="M583.44,168.26c-5.89,0-15.21-2.61-27.01-5.91-22.64-6.33-53.65-15-90.87-15h-39.74c-.28,0-.5-.22-.5-.5s.22-.5,.5-.5h39.74c37.36,0,68.45,8.69,91.14,15.04,11.73,3.28,20.99,5.87,26.74,5.87,18.9,0,30.71-25.27,41.14-47.56,6.87-14.7,12.81-27.4,19.85-31.18,.24-.13,.55-.04,.68,.2,.13,.24,.04,.55-.2,.68-6.74,3.62-12.9,16.78-19.42,30.72-10.55,22.56-22.51,48.14-42.04,48.14Z"/><path class="cls-50" d="M633.99,226.51c-12.25,0-23.95-8.64-36.33-17.79-14.39-10.64-29.27-21.63-47.33-21.63-13.99,0-19.17,2.39-25.16,5.16-8.55,3.95-19.19,8.86-59.61,8.86h-39.74c-.28,0-.5-.22-.5-.5s.22-.5,.5-.5h39.74c40.2,0,50.73-4.86,59.19-8.76,6.1-2.82,11.38-5.25,25.58-5.25,18.38,0,33.4,11.1,47.92,21.83,12.25,9.05,23.81,17.6,35.73,17.6,11.05,0,29.16-5.88,50.13-12.69,28.26-9.17,60.29-19.57,86.63-19.57,.28,0,.5,.22,.5,.5s-.22,.5-.5,.5c-26.19,0-58.13,10.37-86.32,19.52-21.05,6.84-39.23,12.74-50.44,12.74Z"/><path class="cls-48" d="M633.55,231.25c-14.73,0-41.63-12.07-70.12-24.84-34.06-15.28-72.67-32.59-97.88-32.59h-39.74c-.28,0-.5-.22-.5-.5s.22-.5,.5-.5h39.74c25.43,0,64.14,17.36,98.29,32.68,28.38,12.73,55.19,24.75,69.71,24.75,18.25,0,34.13-11.93,52.52-25.74,25.2-18.92,56.56-42.48,106.14-42.48,.28,0,.5,.22,.5,.5s-.22,.5-.5,.5c-49.24,0-80.46,23.44-105.54,42.27-18.54,13.92-34.54,25.94-53.12,25.94Z"/><path class="cls-52" d="M465.56,211.84h-39.74c-.28,0-.5-.22-.5-.5s.22-.5,.5-.5h39.74c70.9,0,110.99-22.87,134.94-36.53,10.31-5.88,17.75-10.13,23.45-10.13,7.75,0,13.4,3.93,19.38,8.09,7.02,4.89,14.29,9.94,26.06,9.94,19.4,0,34.94-28.99,51.39-59.68,19.76-36.86,42.15-78.63,76.1-78.63,.28,0,.5,.22,.5,.5s-.22,.5-.5,.5c-33.35,0-55.59,41.5-75.22,78.1-16.6,30.96-32.27,60.21-52.27,60.21-12.09,0-19.81-5.38-26.63-10.12-5.85-4.07-11.37-7.91-18.81-7.91-5.43,0-12.78,4.19-22.96,9.99-24.04,13.71-64.27,36.66-135.44,36.66Z"/><path class="cls-49" d="M619.24,224.76c-.07,0-.14-.01-.21-.04-4.6-2.08-10.52-6.47-17.38-11.54-14.7-10.88-33-24.42-50.25-24.42-11.56,0-17.83,2.54-25.1,5.49-10.8,4.38-24.24,9.82-60.74,9.82h-39.74c-.28,0-.5-.22-.5-.5s.22-.5,.5-.5h39.74c36.31,0,49.65-5.41,60.37-9.75,7.37-2.99,13.73-5.56,25.48-5.56,17.57,0,36.02,13.65,50.84,24.62,6.81,5.04,12.69,9.39,17.2,11.43,.25,.11,.36,.41,.25,.66-.08,.18-.27,.29-.46,.29Z"/><path class="cls-47" d="M465.56,231.76h-39.74c-.16,0-.29-.13-.29-.29s.13-.29,.29-.29h39.74c31.51,0,57.25-7.12,57.51-7.2,.15-.04,.31,.05,.36,.2,.04,.15-.05,.31-.2,.36-.26,.07-26.08,7.22-57.67,7.22Z"/><path class="cls-51" d="M818.68,298.87c-60.51,0-87.78-30.78-114.14-60.55-26.52-29.94-53.94-60.9-115.38-60.9-33.32,0-51.62,10.73-69.31,21.1-15.68,9.19-30.48,17.88-54.3,17.88h-39.74c-.28,0-.5-.22-.5-.5s.22-.5,.5-.5h39.74c23.54,0,38.23-8.62,53.79-17.74,17.81-10.44,36.22-21.24,69.81-21.24,61.89,0,89.47,31.13,116.13,61.24,26.22,29.6,53.33,60.21,113.39,60.21,.28,0,.5,.22,.5,.5s-.22,.5-.5,.5Z"/><path class="cls-21" d="M466.44,208.48h-40.61c-.28,0-.5-.22-.5-.5s.22-.5,.5-.5h40.61c90.31,0,123.68-28.42,148.05-49.17,13.82-11.77,24.73-21.06,41.43-21.06,7.87,0,15.11,7.34,21.49,13.81,4.99,5.05,9.7,9.83,13.58,9.83,6.19,0,11.37-7.6,17.92-17.23,12.46-18.29,29.51-43.34,68.67-43.34,.28,0,.5,.22,.5,.5s-.22,.5-.5,.5c-38.63,0-55.51,24.8-67.84,42.91-6.72,9.87-12.03,17.67-18.75,17.67-4.3,0-8.93-4.69-14.29-10.13-6.25-6.33-13.33-13.51-20.78-13.51-16.33,0-27.12,9.19-40.79,20.82-24.49,20.85-58.02,49.41-148.7,49.41Z"/><path class="cls-20" d="M831.64,228.61c-95.46,0-118.04-56.32-134.54-97.44-9.38-23.4-16.8-41.88-34.58-41.88-19.15,0-29.32,21.77-39.15,42.81-9.66,20.67-19.65,42.05-38.35,42.05-7.18,0-15.52-2.53-26.08-5.73-20.23-6.13-47.94-14.53-93.33-14.53h-39.79c-.55,0-1-.45-1-1s.45-1,1-1h39.79c45.69,0,73.56,8.45,93.91,14.61,10.4,3.15,18.61,5.64,25.5,5.64,17.43,0,26.72-19.86,36.54-40.89,10.1-21.62,20.54-43.97,40.96-43.97,19.13,0,26.77,19.04,36.43,43.14,16.28,40.59,38.57,96.18,132.68,96.18,.55,0,1,.45,1,1s-.45,1-1,1Z"/><path class="cls-23" d="M610.1,250.1c-.1,0-.2-.01-.29-.04-21.86-6.68-42.64-19.77-62.74-32.43-27.68-17.43-53.83-33.9-81.45-33.9h-39.79c-.55,0-1-.45-1-1s.45-1,1-1h39.79c28.19,0,54.58,16.62,82.51,34.21,19.99,12.59,40.66,25.61,62.26,32.21,.53,.16,.83,.72,.66,1.25-.13,.43-.53,.71-.96,.71Z"/><path class="cls-22" d="M644.7,248.68c-31.94,0-62.58-18.38-92.21-36.15-29.66-17.79-57.68-34.6-86.88-34.6h-39.79c-.55,0-1-.45-1-1s.45-1,1-1h39.79c29.75,0,59.31,17.73,87.9,34.88,29.4,17.63,59.8,35.87,91.18,35.87,.55,0,1,.45,1,1s-.45,1-1,1Z"/><path class="cls-26" d="M571.91,226.32c-.15,0-.31-.04-.45-.11-14.06-7.2-25.89-14.26-36.32-20.5-24.98-14.92-43.02-25.7-69.52-25.7h-39.79c-.55,0-1-.45-1-1s.45-1,1-1h39.79c27.05,0,45.3,10.9,70.55,25.98,10.41,6.22,22.2,13.26,36.2,20.43,.49,.25,.69,.85,.43,1.35-.18,.35-.53,.54-.89,.54Z"/><path class="cls-24" d="M465.62,233.84h-39.79c-.55,0-1-.45-1-1s.45-1,1-1h39.79c14.06,0,49.53-1.33,75.22-13.63,8.22-3.94,15.48-8.63,22.5-13.16,15.1-9.76,28.14-18.19,45.12-15.76,.55,.08,.93,.58,.85,1.13-.08,.55-.59,.93-1.13,.85-16.23-2.32-28.98,5.92-43.75,15.46-7.07,4.57-14.39,9.3-22.73,13.29-26.05,12.47-61.89,13.82-76.08,13.82Z"/><path class="cls-25" d="M634.78,229.85c-15.54,0-27.71-9.24-40.59-19.03-12.9-9.8-26.24-19.94-43.32-19.94s-26.47,8.25-36.51,16.99c-11.71,10.2-23.83,20.74-48.74,20.74h-39.79c-.55,0-1-.45-1-1s.45-1,1-1h39.79c24.17,0,35.99-10.29,47.43-20.25,10.33-8.99,20.08-17.48,37.82-17.48s31.37,10.35,44.53,20.35c12.6,9.58,24.51,18.62,39.38,18.62,22.91,0,36.84-18.63,52.98-40.19,24.49-32.72,54.97-73.45,130.98-73.45,.55,0,1,.45,1,1s-.45,1-1,1c-75.01,0-105.16,40.28-129.38,72.65-16.46,22-30.68,41-54.59,41Z"/><path class="cls-28" d="M814.07,364.66c-79.69,0-107.74-45.35-130.28-81.79-14.49-23.43-25.93-41.93-47.01-41.93-33.23,0-53.59-15.11-69.94-27.26-12.03-8.93-22.42-16.65-34.86-16.65-16.15,0-25.02,6.16-33.6,12.12-8.49,5.89-17.27,11.99-32.78,11.99h-39.79c-.55,0-1-.45-1-1s.45-1,1-1h39.79c14.88,0,23.02-5.65,31.64-11.63,8.83-6.13,17.96-12.47,34.74-12.47,13.1,0,23.74,7.9,36.05,17.04,16.96,12.59,36.17,26.86,68.75,26.86,22.19,0,34.48,19.87,48.71,42.88,22.28,36.01,50,80.84,128.58,80.84,.55,0,1,.45,1,1s-.45,1-1,1Z"/><path class="cls-29" d="M839.01,242.86c-36.45,0-67.47-7.81-94.82-23.88-23.36-13.72-40-31.2-53.37-45.24-14.4-15.13-25.77-27.07-38.51-27.07-7.88,0-15.1,6.84-23.45,14.76-12.29,11.66-27.59,26.17-52.48,26.17-14.88,0-32.57-4.71-51.31-9.7-20.07-5.35-40.83-10.87-59.47-10.87h-39.79c-.55,0-1-.45-1-1s.45-1,1-1h39.79c18.9,0,39.79,5.56,59.98,10.94,18.6,4.95,36.18,9.63,50.79,9.63,24.09,0,39.07-14.2,51.1-25.62,8.66-8.21,16.14-15.31,24.82-15.31,13.59,0,25.23,12.22,39.96,27.69,27.52,28.91,65.21,68.5,146.74,68.5,.55,0,1,.45,1,1s-.45,1-1,1Z"/><path class="cls-27" d="M645.22,258.9c-35.03,0-67.27-19.69-98.45-38.74-28.26-17.26-54.95-33.57-81.2-33.57h-39.75c-.55,0-1-.45-1-1s.45-1,1-1h39.75c26.81,0,53.74,16.45,82.24,33.86,30.94,18.9,62.93,38.44,97.4,38.44s41.99-41.99,52.25-90.6c6.88-32.61,14.68-69.58,31.28-97.61,19.11-32.28,47.01-47.97,85.28-47.97,.55,0,1,.45,1,1s-.45,1-1,1c-37.51,0-64.84,15.37-83.56,46.99-16.43,27.75-24.2,64.54-31.05,97.01-10.44,49.47-19.45,92.19-54.2,92.19Z"/><path class="cls-19" d="M587.03,183.72c-8.51,0-16.5-2.58-26.62-5.85-18.72-6.05-44.36-14.33-94.84-14.33h-39.75c-.55,0-1-.45-1-1s.45-1,1-1h39.75c50.79,0,76.61,8.34,95.46,14.43,9.95,3.21,17.81,5.75,26,5.75,22.49,0,27.44-18.05,32.68-37.16,5.12-18.67,10.41-37.97,33.62-37.97,17.58,0,31.84,6.13,49.9,13.89,28.94,12.44,64.96,27.92,135.74,27.92,.55,0,1,.45,1,1s-.45,1-1,1c-71.2,0-107.42-15.57-136.53-28.09-17.84-7.67-31.94-13.73-49.11-13.73-21.68,0-26.54,17.73-31.69,36.5-5.21,18.99-10.59,38.63-34.61,38.63Z"/><path class="cls-17" d="M885.75,187.58c-135.36,0-179.96-38.04-206.6-60.76-10.42-8.89-17.95-15.31-26.93-15.56-.21,0-.42,0-.63,0-15.66,0-22.44,16.49-29.62,33.94-6.71,16.3-13.65,33.16-28.64,35.83-14.4,2.56-28.93-.84-47.32-5.15-20.3-4.76-45.56-10.67-80.46-10.67h-39.74c-.55,0-1-.45-1-1s.45-1,1-1h39.74c35.14,0,60.52,5.95,80.92,10.73,18.16,4.26,32.51,7.61,46.51,5.13,13.91-2.47,20.64-18.82,27.14-34.62,7.12-17.3,14.48-35.18,31.48-35.18,.22,0,.45,0,.68,0,9.68,.27,17.43,6.88,28.17,16.04,26.43,22.55,70.67,60.28,205.3,60.28,.55,0,1,.45,1,1s-.45,1-1,1Z"/></g><g><circle class="cls-3" cx="814.07" cy="363.64" r="2"/><circle class="cls-3" cx="839.01" cy="241.86" r="2"/><circle class="cls-3" cx="885.75" cy="186.58" r="2"/><circle class="cls-3" cx="818.68" cy="115.21" r="2"/><circle class="cls-3" cx="814.03" cy="21.72" r="2"/><circle class="cls-3" cx="839.01" cy="149.45" r="2"/><circle class="cls-3" cx="831.64" cy="227.61" r="2"/><circle class="cls-3" cx="792.21" cy="333.32" r="1"/><circle class="cls-3" cx="796.87" cy="321.56" r="1"/><circle class="cls-3" cx="855.45" cy="311.36" r="1"/><circle class="cls-3" cx="818.68" cy="298.37" r="1"/><circle class="cls-3" cx="814.07" cy="276.01" r="1"/><circle class="cls-3" cx="786.57" cy="250.23" r="1"/><circle class="cls-3" cx="770.75" cy="193.77" r="1"/><circle class="cls-3" cx="792.21" cy="162.54" r="1"/><circle class="cls-3" cx="777.59" cy="100.82" r="1"/><circle class="cls-3" cx="708.49" cy="133.35" r="1"/><circle class="cls-3" cx="770.75" cy="71.63" r="1"/><circle class="cls-3" cx="726.32" cy="61.59" r="1"/><circle class="cls-3" cx="690.99" cy="107.59" r="1"/><circle class="cls-3" cx="858.66" cy="59.5" r="1"/><circle class="cls-3" cx="786.56" cy="17.41" r="1"/><circle class="cls-3" cx="796.87" cy="44.4" r="1"/><circle class="cls-3" cx="807.9" cy="199.81" r="1"/><circle class="cls-3" cx="644.66" cy="88.96" r="1"/><circle class="cls-3" cx="584.87" cy="131.17" r="1"/><circle class="cls-3" cx="620.46" cy="125.88" r="1"/><circle class="cls-3" cx="578.58" cy="174.89" r="1"/><circle class="cls-3" cx="596.39" cy="168.08" r="1"/><circle class="cls-3" cx="543.96" cy="168.27" r="1"/><circle class="cls-3" cx="558.38" cy="164.2" r="1"/><circle class="cls-3" cx="523.15" cy="224.26" r="1"/><circle class="cls-3" cx="554.39" cy="231.94" r="1"/><circle class="cls-3" cx="619.24" cy="224.26" r="1"/><circle class="cls-3" cx="608.19" cy="190.26" r="2"/><circle class="cls-3" cx="644.64" cy="247.68" r="2"/><circle class="cls-3" cx="609.68" cy="248.91" r="2"/><circle class="cls-3" cx="571.86" cy="225.32" r="2"/><circle class="cls-3" cx="624.84" cy="261.92" r="1"/><circle class="cls-3" cx="575.56" cy="205.19" r="1"/></g></g><rect class="cls-18" x="424.82" y="140.85" width="100.35" height="100.35"/></g><text class="cls-16" transform="translate(15.25 207.34)"><tspan class="cls-4" x="0" y="0">sc</tspan><tspan class="cls-7" x="126.98" y="0">d</tspan><tspan class="cls-5" x="212.66" y="0">i</tspan><tspan class="cls-6" x="246.25" y="0">f</tspan><tspan class="cls-5" x="285.17" y="0">feq</tspan></text></g></svg>